<?xml version="1.0" encoding="UTF-8" standalone="no"?>
<svg
   viewBox="0 0 640 480"
   version="1.1"
   id="svg39"
   sodipodi:docname="glass-295398.svg"
   xml:space="preserve"
   inkscape:version="1.4.2 (f4327f4, 2025-05-13)"
   xmlns:inkscape="http://www.inkscape.org/namespaces/inkscape"
   xmlns:sodipodi="http://sodipodi.sourceforge.net/DTD/sodipodi-0.dtd"
   xmlns:xlink="http://www.w3.org/1999/xlink"
   xmlns="http://www.w3.org/2000/svg"
   xmlns:svg="http://www.w3.org/2000/svg"><sodipodi:namedview
     id="namedview39"
     pagecolor="#505050"
     bordercolor="#eeeeee"
     borderopacity="1"
     inkscape:showpageshadow="0"
     inkscape:pageopacity="0"
     inkscape:pagecheckerboard="0"
     inkscape:deskcolor="#505050"
     showgrid="false"
     inkscape:zoom="0.84895833"
     inkscape:cx="434.06135"
     inkscape:cy="198.47853"
     inkscape:window-width="1920"
     inkscape:window-height="1017"
     inkscape:window-x="-8"
     inkscape:window-y="32"
     inkscape:window-maximized="1"
     inkscape:current-layer="svg39" /><defs
     id="defs27"><linearGradient
       id="h"
       x1=".51102"
       x2=".51102"
       y1=".3925"
       y2=".3925"><stop
         stop-color="#2f2f2f"
         offset="0"
         id="stop1" /><stop
         stop-color="#ba161d"
         offset="1"
         id="stop2" /></linearGradient><linearGradient
       id="l"
       x1="-39.984"
       x2="-38.175"
       y1="-16.256"
       y2="-16.256"
       gradientTransform="matrix(.35646 0 0 .35778 583.18 696.26)"><stop
         stop-color="#dbdbdb"
         offset="0"
         id="stop3" /><stop
         stop-color="#3a3a3a"
         offset=".32143"
         id="stop4" /><stop
         stop-color="#d3d3d3"
         offset="1"
         id="stop5" /></linearGradient><linearGradient
       id="i"
       x1="-70.892"
       x2="-69.446"
       y1="-13.093"
       y2="-13.093"
       gradientTransform="matrix(.35646 0 0 .35778 583.18 696.26)"><stop
         offset="0"
         id="stop6" /><stop
         stop-opacity="0"
         offset="1"
         id="stop7" /></linearGradient><linearGradient
       id="j"
       x1="-417.88015"
       x2="-263.51905"
       y1="-2139.4588"
       y2="-2139.4588"
       gradientTransform="scale(2.0123764,0.49692492)"
       gradientUnits="userSpaceOnUse"><stop
         offset="0"
         id="stop8" /><stop
         stop-opacity="0"
         offset="1"
         id="stop9" /></linearGradient><linearGradient
       id="k"
       x1="-43.386"
       x2="-42.643"
       y1="-20.845"
       y2="-20.845"
       gradientTransform="matrix(.35646 0 0 .35778 583.18 696.26)"
       xlink:href="#b" /><linearGradient
       id="n"
       x1="13.032"
       x2="14"
       y1=".62133"
       y2=".62133"
       gradientTransform="matrix(.35646 0 0 .35778 103.06 383.59)"
       xlink:href="#a" /><linearGradient
       id="m"
       x1="2.5735"
       x2="2.5735"
       y1="-5.491"
       y2="-5.491"
       gradientTransform="matrix(.35646 0 0 .35778 166.3 638.17)"><stop
         stop-color="#fff"
         stop-opacity="0"
         offset="0"
         id="stop10" /><stop
         stop-color="#fff"
         stop-opacity=".196"
         offset=".55357"
         id="stop11" /><stop
         stop-color="#fff"
         stop-opacity=".464"
         offset="1"
         id="stop12" /></linearGradient><linearGradient
       id="a"><stop
         stop-color="#c5c5c5"
         stop-opacity=".536"
         offset="0"
         id="stop13" /><stop
         stop-color="#fff"
         offset="1"
         id="stop14" /></linearGradient><linearGradient
       id="b"><stop
         stop-color="#fff"
         stop-opacity="0"
         offset="0"
         id="stop15" /><stop
         stop-color="#7f7f7f"
         stop-opacity=".062"
         offset=".76786"
         id="stop16" /><stop
         stop-opacity=".361"
         offset="1"
         id="stop17" /></linearGradient><radialGradient
       id="c"
       cx="592.49"
       cy="-360.53"
       r="174.66"
       gradientTransform="matrix(-8.4513e-7 -.64443 .20479 0 317.67 527.27)"
       gradientUnits="userSpaceOnUse"><stop
         stop-color="#fff"
         stop-opacity="0"
         offset="0"
         id="stop18" /><stop
         stop-color="#fff"
         offset=".88397"
         id="stop19" /><stop
         stop-opacity=".237"
         offset="1"
         id="stop20" /></radialGradient><radialGradient
       id="e"
       cx="276.19"
       cy="85.437"
       r="138.92"
       gradientTransform="matrix(.11756 0 0 .10169 473.67 852.4)"
       gradientUnits="userSpaceOnUse"><stop
         stop-color="#fff"
         stop-opacity="0"
         offset="0"
         id="stop21" /><stop
         stop-color="#7f7f7f"
         stop-opacity=".062"
         offset=".76786"
         id="stop22" /><stop
         stop-opacity=".361"
         offset="1"
         id="stop23" /></radialGradient><radialGradient
       id="d"
       cx="267.89"
       cy="73.803"
       r="138.92"
       gradientTransform="matrix(.12196 0 0 .1018 471.72 859.38)"
       gradientUnits="userSpaceOnUse"><stop
         stop-color="#c5c5c5"
         stop-opacity="0"
         offset="0"
         id="stop24" /><stop
         stop-color="#fff"
         offset=".46224"
         id="stop25" /><stop
         stop-color="#c5c5c5"
         stop-opacity="0"
         offset=".67403"
         id="stop26" /><stop
         stop-color="#fff"
         offset="1"
         id="stop27" /></radialGradient><radialGradient
       id="f"
       cx="266.99"
       cy="86.914"
       r="138.92"
       gradientTransform="matrix(.12589 0 0 .11774 471.37 850.85)"
       gradientUnits="userSpaceOnUse"
       xlink:href="#a" /><radialGradient
       id="g"
       cx="80.319"
       cy="-1153.1"
       r="174.66"
       gradientTransform="matrix(5.3482e-6 -.75604 .33196 0 636.27 204.13)"
       gradientUnits="userSpaceOnUse"
       xlink:href="#b" /></defs><g
     id="g39"
     transform="matrix(0.61432164,0,0,0.61432164,161.05468,107.23416)"><g
       stroke-width="2"
       id="g30"
       style="fill:#000000;fill-opacity:1"><path
         d="m 203.37,79.521 c 0,0 -11.788,27.305 -11.788,63.248 0,6.0325 0.62882,11.615 1.774,16.768 0.0113,-7.8965 26.947,-14.301 59.899,-14.301 32.952,0 60.118,6.4048 60.227,14.346 1.2618,-5.1326 1.9022,-10.745 1.9022,-16.813 0,-35.631 -11.793,-63.184 -11.807,-63.201 -0.0137,-6.4135 -23.443,-11.604 -50.748,-11.604 -27.305,0 -49.46,5.1614 -49.46,11.557 z"
         fill="url(#g)"
         opacity="0.4"
         id="path27"
         style="fill:#000000;fill-opacity:1" /><g
         fill-opacity="0.77"
         id="g29"
         style="display:none;fill:#000000;fill-opacity:1" /></g><path
       d="m 193.45,160.15 c -1.5074,-7.7162 26.744,-14.774 59.696,-14.774 32.952,0 61.702,6.5871 60.126,14.779 -7.7658,40.378 -48.973,54.272 -59.899,54.272 -11.207,0 -52.13,-14.377 -59.924,-54.277 z"
       fill-rule="evenodd"
       id="path30"
       style="fill:#000000;fill-opacity:1" /><g
       stroke-width="2"
       id="g33"
       style="fill:#000000;fill-opacity:1"><path
         d="m 313.55,159.46 a 59.92,14.296 0 1 1 -119.84,0"
         fill="url(#h)"
         id="path31"
         style="fill:#000000;fill-opacity:1" /><path
         d="m 313.53,158.87 c 1.0484,-4.9679 1.8759,-10.311 1.8759,-16.08 0,-35.631 -11.812,-63.222 -11.812,-63.222 0,6.396 -22.296,11.59 -49.601,11.59 -27.305,0 -50.59,-5.191 -50.593,-11.583 -0.003,0.0037 -11.796,27.272 -11.796,63.215 0,5.7719 0.57568,11.132 1.7277,16.084 0.10913,7.8734 26.954,14.278 60.03,14.278 33.076,0 60.169,-6.3903 60.169,-14.282 z"
         fill="url(#c)"
         opacity="0.2"
         id="path32"
         style="fill:#000000;fill-opacity:1" /><path
         d="m 303.59,79.616 c 0,0 11.812,27.591 11.812,63.222 0,53.335 -49.484,71.518 -61.901,71.518 -12.736,0 -61.901,-18.177 -61.901,-71.518 0,-35.943 11.793,-63.212 11.796,-63.215 0.003,6.3923 23.288,11.583 50.593,11.583 27.305,0 49.601,-5.1944 49.601,-11.59 z"
         fill="url(#m)"
         id="path33"
         style="fill:#000000;fill-opacity:1" /></g><path
       d="m 242.2,214.13 c 7.2506,3.0728 15.892,4.0739 21.185,0.20917 -1.8926,2.1952 -1.4218,3.2799 -2.5306,5.6358 -3.448,7.3259 -5.1303,38.859 -5.1302,36.147 8.2e-4,-13.474 1.0759,-24.775 -5.4433,-32.87 -0.86646,-1.076 -3.4997,-2.2086 -8.0812,-9.1217 z"
       fill="url(#k)"
       fill-rule="evenodd"
       stroke="#ffffff"
       id="path34"
       style="fill:#000000;fill-opacity:1" /><g
       fill-rule="evenodd"
       id="g37"
       style="fill:#000000;fill-opacity:1"><path
         d="m 250.2,266.43 c 2.1944,-2.3992 -0.62259,20.54 8.101,27.509 3.8744,3.0953 4.7068,12.39 3.8529,14.676 -3.6724,9.8303 -27.553,2.5549 -22.812,-1.7595 13.398,-12.193 8.317,-37.647 10.858,-40.425 z"
         fill="url(#l)"
         id="path36"
         style="fill:#000000;fill-opacity:1" /><path
         d="m 253.44,214.13 c 4.0935,0 8.5526,-0.47479 12.715,-2.2676 -8.6235,10.639 -8.2,27.925 -8.2,50.412 0,23.646 -0.16071,36.956 10.77,43.859 4.6086,2.9107 -5.2588,8.5566 -15.285,8.5566 -10.0262,0 -19.893,-5.6459 -15.285,-8.5566 10.93,-6.9032 10.77,-20.213 10.77,-43.859 0,-22.487 0.42343,-39.773 -8.2001,-50.412 4.1626,1.7928 8.6217,2.2676 12.715,2.2676 z"
         fill="url(#n)"
         id="path37"
         style="fill:#000000;fill-opacity:1" /></g><path
       d="m 253.84,68.305 c -27.305,0 -49.47,5.1646 -49.47,11.561 l 0.0334,0.10065 c 0.003,6.3923 23.29,11.583 50.595,11.583 27.289,0 49.578,-5.1921 49.603,-11.583 -8e-4,-0.0018 -0.0222,-0.05582 -0.0223,-0.05594 -0.0137,-6.4135 -23.435,-11.605 -50.739,-11.605 z"
       fill="none"
       opacity="0.4"
       stroke="url(#j)"
       stroke-width="2"
       id="path38"
       style="fill:#000000;fill-opacity:1;stroke:url(#j)" /><path
       d="m 193.86,160.58 c -1.293,-5.4638 -2.0158,-11.414 -2.0158,-17.882 0,-35.943 11.793,-62.665 11.812,-62.65 0.0192,1.1579 1.317,2.3277 2.699,3.3738 -3.167,8.5639 -10.423,31.314 -10.423,59.276 0,6.4674 0.72275,12.418 2.0157,17.882"
       fill="url(#i)"
       fill-rule="evenodd"
       stroke-opacity="0"
       id="path39"
       style="fill:#000000;fill-opacity:1" /></g></svg>
