<?xml version="1.0" encoding="UTF-8" standalone="no"?>
<!-- Created with Inkscape (http://www.inkscape.org/) -->

<svg
   version="1.1"
   id="svg1"
   width="1024"
   height="1024"
   viewBox="0 0 1024 1024"
   sodipodi:docname="JMZ-Photoroom.png"
   inkscape:export-filename="JMZ-Orange.png"
   inkscape:export-xdpi="96"
   inkscape:export-ydpi="96"
   xmlns:inkscape="http://www.inkscape.org/namespaces/inkscape"
   xmlns:sodipodi="http://sodipodi.sourceforge.net/DTD/sodipodi-0.dtd"
   xmlns="http://www.w3.org/2000/svg"
   xmlns:svg="http://www.w3.org/2000/svg">
  <defs
     id="defs1" />
  <sodipodi:namedview
     id="namedview1"
     pagecolor="#505050"
     bordercolor="#eeeeee"
     borderopacity="1"
     inkscape:showpageshadow="0"
     inkscape:pageopacity="0"
     inkscape:pagecheckerboard="0"
     inkscape:deskcolor="#505050"
     showgrid="false">
    <inkscape:page
       x="0"
       y="0"
       width="1024"
       height="1024"
       id="page2"
       margin="0"
       bleed="0" />
  </sodipodi:namedview>
  <g
     inkscape:groupmode="layer"
     inkscape:label="Image"
     id="g1">
    <path
       style="fill:#ff6b35;fill-opacity:1;stroke:none;stroke-opacity:1"
       d="M 228.55269,486.93454 V 210.93455 h 276.5 276.5 v 275.99999 276 h -276.5 -276.5 z m 536,0 V 227.93455 h -259.5 -259.5 v 258.33332 c 0,142.08334 0.3,258.63334 0.6667,259 0.3667,0.36667 117.1417,0.66667 259.5,0.66667 h 258.8333 z m -461.7774,113.93789 c -5.9604,-1.17464 -13.5436,-5.51844 -15.5432,-8.90347 -3.9367,-6.66439 -0.7947,-16.02077 6.0709,-18.07774 5.4374,-1.62908 10.2804,0.54436 13.8529,6.21689 1.4986,2.37954 3.4384,4.85416 4.3108,5.49916 7.5792,5.60408 20.8997,-1.81266 25.131,-13.99265 3.6914,-10.62604 4.0857,-23.16057 3.23,-102.68008 -0.6203,-57.64715 -1.1105,-76.02959 -2.0733,-77.73965 -1.4946,-2.65465 -5.3147,-4.74222 -10.3418,-5.6514 -3.15,-0.56971 -3.7062,-1.09261 -4.1309,-3.88365 -0.27,-1.77392 -0.3623,-3.4503 -0.2053,-3.7253 0.1571,-0.275 14.166,-0.5 31.1309,-0.5 h 30.8454 v 3.97683 3.97683 l -4.9916,0.83685 c -5.374,0.90095 -8.0937,2.7545 -9.8448,6.70949 -0.7619,1.72063 -1.2966,27.43996 -1.7152,82.5 -0.5379,70.74378 -0.8044,80.7413 -2.3033,86.40693 -5.1866,19.6042 -20.5539,34.63393 -39.5231,38.65472 -7.2471,1.53614 -17.2174,1.69309 -23.8994,0.37624 z m 183.069,-36.18789 c -0.5243,-0.6875 -4.0016,-10.7 -7.7273,-22.25 -13.11,-40.64256 -37.7336,-116.1128 -41.1098,-126 l -3.4148,-10 0.5213,32 c 0.9381,57.58231 2.4731,101.859 3.6702,105.86617 1.5599,5.22142 5.4701,8.87884 11.0974,10.37999 4.5495,1.21365 4.6714,1.34784 4.6714,5.14301 0,2.63093 -0.5138,4.09404 -1.5818,4.50384 -2.4282,0.93179 -46.7388,0.69005 -48.2423,-0.26319 -0.7881,-0.49966 -1.193,-2.17523 -1,-4.1388 0.2961,-3.01362 0.7808,-3.44756 5.5986,-5.01231 6.4201,-2.08514 8.8516,-4.16382 10.3856,-8.87862 1.2964,-3.98457 2.5277,-136.38673 1.3559,-145.79963 -1.0786,-8.66442 -4.219,-12.05493 -12.766,-13.78266 -2.4463,-0.49453 -2.75,-0.99543 -2.75,-4.53685 v -3.98095 h 24.2678 24.2677 l 22.4823,67.96473 c 12.3652,37.3806 22.7089,67.9806 22.9858,68 0.4264,0.0299 15.6129,-42.84831 40.8951,-115.46473 3.2553,-9.35 6.2185,-17.74991 6.585,-18.66647 1.0193,-2.54954 8.5427,-3.14065 29.6399,-2.32878 l 18.8764,0.72642 -0.015,2.63441 c -0.023,3.87878 -1.002,4.80877 -5.933,5.63336 -5.9058,0.98759 -9.6763,4.78056 -10.5257,10.58848 -0.355,2.42692 -0.506,36.81258 -0.3357,76.41258 0.3364,78.19919 0.1355,75.47249 5.8736,79.71634 1.4101,1.04291 4.7851,2.21394 7.5,2.60229 l 4.9361,0.70608 v 3.98765 3.98764 l -30.3796,0.26486 c -22.2039,0.19357 -30.762,-0.0525 -31.8006,-0.91441 -0.8708,-0.72274 -1.3045,-2.56461 -1.1203,-4.75779 0.2906,-3.46064 0.4601,-3.60118 5.1452,-4.26623 2.6645,-0.37823 5.7641,-1.50642 6.888,-2.50707 4.7636,-4.24134 4.7742,-4.39878 4.6588,-69.03724 -0.06,-33.43017 -0.4127,-63.48212 -0.7845,-66.78212 l -0.6761,-6 -6.0863,18.5 c -7.3961,22.48105 -46.102,134.79855 -46.8957,136.08282 -0.8464,1.36941 -8.059,1.10727 -9.1573,-0.33282 z m 179.7323,0.26272 -55.4762,-0.51272 -0.8931,-2.54028 c -0.773,-2.19851 4.8072,-13.9035 41.4761,-87 23.3032,-46.45285 42.5193,-84.79722 42.7027,-85.20972 0.1833,-0.4125 -8.8726,-0.75 -20.1243,-0.75 -22.8756,0 -26.1056,0.62573 -33.1882,6.42936 -4.4504,3.64681 -8.5677,10.69152 -13.0453,22.32064 -2.5176,6.53846 -3.0584,7.25 -5.5111,7.25 -4.617,0 -4.8302,-1.18565 -3.4164,-19 0.7202,-9.075 1.454,-19.2 1.6307,-22.5 l 0.3212,-6 53.6371,-0.25863 53.6371,-0.25863 0.6514,3.47195 c 0.5897,3.14335 -3.3275,11.41626 -41.3871,87.40935 -23.1212,46.16557 -42.0385,84.23652 -42.0385,84.6021 0,0.36559 10.6875,0.51864 23.75,0.34012 23.13,-0.31611 23.8936,-0.39211 29.25,-2.91137 9.3373,-4.39152 14.7247,-11.48578 21.5634,-28.39489 3.1388,-7.76093 3.3431,-8.00928 6.836,-8.31037 3.5636,-0.30717 3.6003,-0.27119 3.5658,3.5 -0.08,8.71056 -2.8153,47.25883 -3.4236,48.24313 -0.3628,0.58698 -1.6455,0.96046 -2.8506,0.82996 -1.205,-0.13051 -27.1552,-0.46801 -57.6671,-0.75 z"
       id="path1" />
  </g>
</svg>
